<svg xmlns="http://www.w3.org/2000/svg" width="218.76999999999998" height="35" viewBox="0 0 218.76999999999998 35"><rect class="svg__rect" x="0" y="0" width="150.95999999999998" height="35" fill="#83419B"/><rect class="svg__rect" x="148.95999999999998" y="0" width="69.81" height="35" fill="#DEBDEC"/><path class="svg__text" d="M16.51 22L13.46 13.47L15.08 13.47L17.22 20.14L19.39 13.47L21.02 13.47L17.95 22L16.51 22ZM26.53 22L25.06 22L25.06 13.47L26.53 13.47L26.53 22ZM36.92 22L31.34 22L31.34 13.47L36.88 13.47L36.88 14.66L32.83 14.66L32.83 17.02L36.33 17.02L36.33 18.19L32.83 18.19L32.83 20.82L36.92 20.82L36.92 22ZM42.50 22L40.53 13.47L42.00 13.47L43.33 19.88L44.96 13.47L46.20 13.47L47.81 19.89L49.12 13.47L50.59 13.47L48.62 22L47.21 22L45.58 15.77L43.92 22L42.50 22ZM60.21 19.42L60.21 19.42L61.69 19.42Q61.69 20.15 62.17 20.55Q62.65 20.95 63.55 20.95L63.55 20.95Q64.32 20.95 64.71 20.63Q65.10 20.32 65.10 19.80L65.10 19.80Q65.10 19.24 64.70 18.94Q64.31 18.63 63.28 18.32Q62.25 18.01 61.64 17.63L61.64 17.63Q60.47 16.90 60.47 15.72L60.47 15.72Q60.47 14.69 61.31 14.02Q62.15 13.35 63.49 13.35L63.49 13.35Q64.39 13.35 65.08 13.68Q65.78 14.01 66.18 14.61Q66.58 15.22 66.58 15.96L66.58 15.96L65.10 15.96Q65.10 15.29 64.68 14.91Q64.26 14.54 63.48 14.54L63.48 14.54Q62.76 14.54 62.35 14.85Q61.95 15.16 61.95 15.71L61.95 15.71Q61.95 16.18 62.39 16.50Q62.82 16.81 63.82 17.10Q64.81 17.40 65.42 17.78Q66.02 18.16 66.30 18.65Q66.58 19.13 66.58 19.79L66.58 19.79Q66.58 20.86 65.77 21.49Q64.95 22.12 63.55 22.12L63.55 22.12Q62.62 22.12 61.85 21.77Q61.07 21.43 60.64 20.83Q60.21 20.22 60.21 19.42ZM70.60 18.00L70.60 18.00L70.60 17.52Q70.60 16.28 71.04 15.32Q71.49 14.37 72.29 13.86Q73.10 13.35 74.14 13.35Q75.18 13.35 75.99 13.85Q76.80 14.35 77.23 15.29Q77.67 16.23 77.68 17.48L77.68 17.48L77.68 17.96Q77.68 19.21 77.25 20.16Q76.81 21.10 76.01 21.61Q75.20 22.12 74.15 22.12L74.15 22.12Q73.12 22.12 72.30 21.61Q71.49 21.10 71.05 20.17Q70.61 19.23 70.60 18.00ZM72.08 17.46L72.08 17.96Q72.08 19.36 72.63 20.13Q73.18 20.90 74.15 20.90L74.15 20.90Q75.14 20.90 75.67 20.15Q76.20 19.40 76.20 17.96L76.20 17.96L76.20 17.51Q76.20 16.09 75.66 15.34Q75.13 14.58 74.14 14.58L74.14 14.58Q73.18 14.58 72.64 15.33Q72.10 16.09 72.08 17.46L72.08 17.46ZM87.50 22L82.14 22L82.14 13.47L83.63 13.47L83.63 20.82L87.50 20.82L87.50 22ZM91.49 19.16L91.49 19.16L91.49 13.47L92.97 13.47L92.97 19.18Q92.97 20.03 93.40 20.48Q93.83 20.93 94.68 20.93L94.68 20.93Q96.39 20.93 96.39 19.13L96.39 19.13L96.39 13.47L97.87 13.47L97.87 19.17Q97.87 20.53 97.00 21.32Q96.13 22.12 94.68 22.12L94.68 22.12Q93.21 22.12 92.35 21.33Q91.49 20.55 91.49 19.16ZM104.12 14.66L101.48 14.66L101.48 13.47L108.25 13.47L108.25 14.66L105.59 14.66L105.59 22L104.12 22L104.12 14.66ZM113.57 22L112.09 22L112.09 13.47L113.57 13.47L113.57 22ZM118.11 18.00L118.11 18.00L118.11 17.52Q118.11 16.28 118.55 15.32Q118.99 14.37 119.80 13.86Q120.61 13.35 121.65 13.35Q122.69 13.35 123.50 13.85Q124.30 14.35 124.74 15.29Q125.18 16.23 125.19 17.48L125.19 17.48L125.19 17.96Q125.19 19.21 124.75 20.16Q124.32 21.10 123.52 21.61Q122.71 22.12 121.66 22.12L121.66 22.12Q120.62 22.12 119.81 21.61Q119.00 21.10 118.56 20.17Q118.12 19.23 118.11 18.00ZM119.59 17.46L119.59 17.96Q119.59 19.36 120.14 20.13Q120.69 20.90 121.66 20.90L121.66 20.90Q122.64 20.90 123.18 20.15Q123.71 19.40 123.71 17.96L123.71 17.96L123.71 17.51Q123.71 16.09 123.17 15.34Q122.63 14.58 121.65 14.58L121.65 14.58Q120.69 14.58 120.15 15.33Q119.60 16.09 119.59 17.46L119.59 17.46ZM131.14 22L129.65 22L129.65 13.47L131.14 13.47L134.95 19.54L134.95 13.47L136.42 13.47L136.42 22L134.94 22L131.14 15.95L131.14 22Z" fill="#FFFFFF"/><path class="svg__text" d="M165.53 22L163.15 22L163.15 13.60L165.53 13.60L165.53 16.76L168.77 16.76L168.77 13.60L171.14 13.60L171.14 22L168.77 22L168.77 18.72L165.53 18.72L165.53 22ZM183.05 22L176.30 22L176.30 13.60L182.89 13.60L182.89 15.44L178.66 15.44L178.66 16.85L182.39 16.85L182.39 18.63L178.66 18.63L178.66 20.17L183.05 20.17L183.05 22ZM190.23 22L187.85 22L187.85 13.60L191.69 13.60Q192.84 13.60 193.68 13.98Q194.51 14.35 194.97 15.06Q195.43 15.76 195.43 16.71L195.43 16.71Q195.43 17.62 195.00 18.30Q194.57 18.98 193.78 19.36L193.78 19.36L195.59 22L193.05 22L191.52 19.77L190.23 19.77L190.23 22ZM190.23 15.47L190.23 17.93L191.55 17.93Q192.28 17.93 192.65 17.61Q193.02 17.29 193.02 16.71L193.02 16.71Q193.02 16.12 192.65 15.79Q192.28 15.47 191.55 15.47L191.55 15.47L190.23 15.47ZM206.96 22L200.21 22L200.21 13.60L206.81 13.60L206.81 15.44L202.57 15.44L202.57 16.85L206.30 16.85L206.30 18.63L202.57 18.63L202.57 20.17L206.96 20.17L206.96 22Z" fill="#FFFFFF" x="161.95999999999998"/></svg>